<svg width="20" height="20" viewBox="0 0 20 20" fill="none" xmlns="http://www.w3.org/2000/svg">
<mask id="mask0_1111_307" style="mask-type:alpha" maskUnits="userSpaceOnUse" x="0" y="0" width="20" height="20">
<rect width="20" height="20" fill="#D9D9D9"/>
</mask>
<g mask="url(#mask0_1111_307)">
<path d="M5.83335 12.1749H10.8334C11.0107 12.1749 11.1592 12.1151 11.2789 11.9955C11.3985 11.8758 11.4583 11.7273 11.4583 11.55C11.4583 11.3726 11.3985 11.2241 11.2789 11.1045C11.1592 10.9848 11.0107 10.925 10.8334 10.925H5.83335C5.65601 10.925 5.50751 10.9848 5.38785 11.1045C5.2682 11.2241 5.20837 11.3726 5.20837 11.55C5.20837 11.7273 5.2682 11.8758 5.38785 11.9955C5.50751 12.1151 5.65601 12.1749 5.83335 12.1749ZM5.83335 9.67495H14.1667C14.344 9.67495 14.4925 9.61512 14.6122 9.49547C14.7318 9.37581 14.7917 9.22732 14.7917 9.04997C14.7917 8.87262 14.7318 8.72412 14.6122 8.60447C14.4925 8.48482 14.344 8.42499 14.1667 8.42499H5.83335C5.65601 8.42499 5.50751 8.48482 5.38785 8.60447C5.2682 8.72412 5.20837 8.87262 5.20837 9.04997C5.20837 9.22732 5.2682 9.37581 5.38785 9.49547C5.50751 9.61512 5.65601 9.67495 5.83335 9.67495ZM5.83335 7.17495H14.1667C14.344 7.17495 14.4925 7.11512 14.6122 6.99547C14.7318 6.87581 14.7917 6.72731 14.7917 6.54997C14.7917 6.37262 14.7318 6.22412 14.6122 6.10447C14.4925 5.98482 14.344 5.92499 14.1667 5.92499H5.83335C5.65601 5.92499 5.50751 5.98482 5.38785 6.10447C5.2682 6.22412 5.20837 6.37262 5.20837 6.54997C5.20837 6.72731 5.2682 6.87581 5.38785 6.99547C5.50751 7.11512 5.65601 7.17495 5.83335 7.17495ZM5.03208 15.2999L3.36383 16.9682C3.12665 17.2054 2.85395 17.259 2.54573 17.1292C2.23749 16.9994 2.08337 16.7657 2.08337 16.4281V4.30641C2.08337 3.88546 2.22921 3.52915 2.52087 3.23749C2.81254 2.94582 3.16885 2.79999 3.58979 2.79999H16.4103C16.8312 2.79999 17.1875 2.94582 17.4792 3.23749C17.7708 3.52915 17.9167 3.88546 17.9167 4.30641V13.7935C17.9167 14.2145 17.7708 14.5708 17.4792 14.8624C17.1875 15.1541 16.8312 15.2999 16.4103 15.2999H5.03208ZM4.50004 14.05H16.4103C16.4744 14.05 16.5331 14.0233 16.5866 13.9698C16.64 13.9164 16.6667 13.8576 16.6667 13.7935V4.30641C16.6667 4.24229 16.64 4.18352 16.5866 4.13009C16.5331 4.07668 16.4744 4.04997 16.4103 4.04997H3.58979C3.52568 4.04997 3.46691 4.07668 3.41348 4.13009C3.36006 4.18352 3.33335 4.24229 3.33335 4.30641V15.2038L4.50004 14.05Z" fill="white"/>
</g>
</svg>
