<svg width="24" height="24" viewBox="0 0 24 24" fill="none" xmlns="http://www.w3.org/2000/svg">
<mask id="mask0_1104_24" style="mask-type:alpha" maskUnits="userSpaceOnUse" x="0" y="0" width="24" height="24">
<rect width="24" height="24" fill="#D9D9D9"/>
</mask>
<g mask="url(#mask0_1104_24)">
<path d="M12 13.2898L5.76615 19.5236C5.60237 19.6874 5.39274 19.7742 5.13724 19.784C4.88093 19.7947 4.66064 19.7079 4.47639 19.5236C4.29214 19.3394 4.20001 19.1244 4.20001 18.8788C4.20001 18.6331 4.29214 18.4181 4.47639 18.2339L10.7102 12L4.47639 5.76615C4.31261 5.60237 4.22581 5.39233 4.21598 5.13601C4.20534 4.88052 4.29214 4.66064 4.47639 4.47639C4.66064 4.29214 4.8756 4.20001 5.12127 4.20001C5.36694 4.20001 5.5819 4.29214 5.76615 4.47639L12 10.7102L18.2339 4.47639C18.3977 4.31261 18.6077 4.2254 18.864 4.21475C19.1195 4.20493 19.3394 4.29214 19.5236 4.47639C19.7079 4.66064 19.8 4.8756 19.8 5.12127C19.8 5.36694 19.7079 5.5819 19.5236 5.76615L13.2898 12L19.5236 18.2339C19.6874 18.3977 19.7742 18.6073 19.784 18.8628C19.7947 19.1191 19.7079 19.3394 19.5236 19.5236C19.3394 19.7079 19.1244 19.8 18.8788 19.8C18.6331 19.8 18.4181 19.7079 18.2339 19.5236L12 13.2898Z" fill="white"/>
</g>
</svg>
