<svg width="16" height="17" viewBox="0 0 16 17" fill="none" xmlns="http://www.w3.org/2000/svg">
<path d="M8 9.20801L3.85449 13.3535C3.75684 13.4512 3.63965 13.5 3.50293 13.5C3.3597 13.5 3.23926 13.4528 3.1416 13.3584C3.0472 13.2607 3 13.1403 3 12.9971C3 12.8604 3.04883 12.7432 3.14648 12.6455L7.29199 8.5L3.14648 4.35449C3.04883 4.25684 3 4.13802 3 3.99805C3 3.92969 3.01302 3.86458 3.03906 3.80273C3.0651 3.74089 3.10091 3.6888 3.14648 3.64648C3.19206 3.60091 3.24577 3.5651 3.30762 3.53906C3.36947 3.51302 3.43457 3.5 3.50293 3.5C3.63965 3.5 3.75684 3.54883 3.85449 3.64648L8 7.79199L12.1455 3.64648C12.2432 3.54883 12.362 3.5 12.502 3.5C12.5703 3.5 12.6338 3.51302 12.6924 3.53906C12.7542 3.5651 12.8079 3.60091 12.8535 3.64648C12.8991 3.69206 12.9349 3.74577 12.9609 3.80762C12.987 3.86621 13 3.92969 13 3.99805C13 4.13802 12.9512 4.25684 12.8535 4.35449L8.70801 8.5L12.8535 12.6455C12.9512 12.7432 13 12.8604 13 12.9971C13 13.0654 12.987 13.1305 12.9609 13.1924C12.9349 13.2542 12.8991 13.3079 12.8535 13.3535C12.8112 13.3991 12.7591 13.4349 12.6973 13.4609C12.6354 13.487 12.5703 13.5 12.502 13.5C12.362 13.5 12.2432 13.4512 12.1455 13.3535L8 9.20801Z" fill="#B2B2C2"/>
</svg>
