<svg width="16" height="17" viewBox="0 0 16 17" fill="none" xmlns="http://www.w3.org/2000/svg">
<mask id="mask0_184_693" style="mask-type:alpha" maskUnits="userSpaceOnUse" x="0" y="0" width="16" height="17">
<rect y="0.5" width="16" height="16" fill="#D9D9D9"/>
</mask>
<g mask="url(#mask0_184_693)">
<path d="M6.73336 11.15C6.63336 11.0389 6.58336 10.9167 6.58336 10.7833C6.58336 10.65 6.63336 10.5333 6.73336 10.4333L8.00002 9.16667H2.90002C2.75558 9.16667 2.63602 9.11933 2.54136 9.02467C2.44714 8.93044 2.40002 8.81111 2.40002 8.66667C2.40002 8.52222 2.44714 8.40267 2.54136 8.308C2.63602 8.21378 2.75558 8.16667 2.90002 8.16667H8.00002L6.73336 6.88333C6.63336 6.78333 6.58336 6.66667 6.58336 6.53333C6.58336 6.4 6.63336 6.28333 6.73336 6.18333C6.83336 6.08333 6.95002 6.03333 7.08336 6.03333C7.21669 6.03333 7.33336 6.07778 7.43336 6.16667L9.50002 8.25C9.56669 8.30555 9.61114 8.36933 9.63336 8.44133C9.65558 8.51378 9.66669 8.58889 9.66669 8.66667C9.66669 8.74444 9.65558 8.81933 9.63336 8.89133C9.61114 8.96378 9.56669 9.02778 9.50002 9.08333L7.41669 11.1667C7.31669 11.2667 7.20291 11.3138 7.07536 11.308C6.94736 11.3027 6.83336 11.25 6.73336 11.15ZM8.41669 14.5C8.28336 14.5 8.16669 14.4529 8.06669 14.3587C7.96669 14.264 7.91669 14.1444 7.91669 14C7.91669 13.8556 7.96669 13.736 8.06669 13.6413C8.16669 13.5471 8.28336 13.5 8.41669 13.5H12.4C12.4445 13.5 12.4889 13.4778 12.5334 13.4333C12.5778 13.3889 12.6 13.3444 12.6 13.3V4.03333C12.6 3.98889 12.5778 3.94444 12.5334 3.9C12.4889 3.85555 12.4445 3.83333 12.4 3.83333H8.41669C8.28336 3.83333 8.16669 3.786 8.06669 3.69133C7.96669 3.59711 7.91669 3.47778 7.91669 3.33333C7.91669 3.18889 7.96669 3.06933 8.06669 2.97467C8.16669 2.88044 8.28336 2.83333 8.41669 2.83333H12.4C12.7334 2.83333 13.0167 2.95 13.25 3.18333C13.4834 3.41667 13.6 3.7 13.6 4.03333V13.3C13.6 13.6333 13.4834 13.9167 13.25 14.15C13.0167 14.3833 12.7334 14.5 12.4 14.5H8.41669Z" fill="#B2B2C2"/>
</g>
</svg>
