<svg width="98" height="22" viewBox="0 0 98 22" fill="none" xmlns="http://www.w3.org/2000/svg">
<path d="M14.816 0.559999V21.992H17.432V0.559999H14.816ZM0.512 9.656C0.512 14.288 2.84 17.24 6.032 17.24C9.224 17.24 11.576 14.288 11.576 9.656C11.576 5.048 9.224 2.144 6.032 2.144C2.84 2.144 0.512 5.048 0.512 9.656ZM3.008 9.656C3.008 6.392 4.256 4.472 6.032 4.472C7.856 4.472 9.08 6.392 9.08 9.656C9.08 12.992 7.856 14.888 6.032 14.888C4.256 14.888 3.008 12.992 3.008 9.656ZM29.2166 7.976V10.088H32.2406V20.912H34.6646V0.991999H32.2406V7.976H29.2166ZM20.4806 15.608L22.0646 17.552C24.0806 16.328 25.4246 14.144 26.1926 11.552C26.9126 13.904 28.1606 15.92 30.0566 17.072L31.4726 15.056C28.6166 13.232 27.4406 9.632 27.4406 6.176V2.504H24.9206V6.296C24.9206 9.944 23.5286 13.736 20.4806 15.608ZM36.5846 21.944H39.0806V0.559999H36.5846V21.944ZM49.9051 11.672V13.784H53.2411V20.912H55.6891V1.064H53.2411V6.368H50.7211C50.8651 5.336 50.9371 4.28 50.9371 3.176H42.7051V5.264H48.3931C48.0091 9.584 45.9931 12.968 41.6251 15.608L43.0891 17.432C47.0731 15.056 49.2811 12.008 50.2651 8.432H53.2411V11.672H49.9051ZM57.5851 21.944H60.0811V0.559999H57.5851V21.944ZM70.9537 11.456H66.2497V5H70.9537C72.7297 5 74.1937 6.44 74.1937 8.216C74.1937 9.968 72.7297 11.456 70.9537 11.456ZM63.7297 20.168H66.2497V13.952H70.9297C74.0977 13.952 76.6177 11.36 76.6177 8.216C76.6177 5.048 74.0977 2.504 70.9297 2.504H63.7297V20.168ZM78.9178 7.592V20.216H81.3898V7.592H78.9178ZM78.7258 3.08C78.7258 3.872 79.2298 4.496 80.1658 4.496C81.0538 4.496 81.5578 3.872 81.5578 3.08C81.5578 2.288 81.0538 1.664 80.1658 1.664C79.2298 1.664 78.7258 2.288 78.7258 3.08ZM92.0709 11.456H87.3669V5H92.0709C93.8469 5 95.3109 6.44 95.3109 8.216C95.3109 9.968 93.8469 11.456 92.0709 11.456ZM84.8469 20.168H87.3669V13.952H92.0469C95.2149 13.952 97.7349 11.36 97.7349 8.216C97.7349 5.048 95.2149 2.504 92.0469 2.504H84.8469V20.168Z" fill="url(#paint0_linear_3_25)"/>
<defs>
<linearGradient id="paint0_linear_3_25" x1="49.5" y1="-7" x2="49.5" y2="29" gradientUnits="userSpaceOnUse">
<stop stop-color="#FF80A3"/>
<stop offset="1" stop-color="#FF4D7E"/>
</linearGradient>
</defs>
</svg>
