<svg width="1024" height="1024" viewBox="0 0 1024 1024" fill="none" xmlns="http://www.w3.org/2000/svg">
<g clip-path="url(#clip0_914_17)">
<g clip-path="url(#clip1_914_17)">
<rect x="132" y="132" width="760" height="760" rx="156" fill="url(#paint0_radial_914_17)" stroke="url(#paint1_linear_914_17)" stroke-width="64"/>
</g>
<g filter="url(#filter0_d_914_17)">
<path d="M632.074 254.209C633.425 248.597 641.575 248.597 642.926 254.209L645.293 264.043C657.96 316.662 696.846 359.474 748.709 377.9C753.097 379.459 753.097 385.541 748.709 387.1C696.846 405.526 657.96 448.338 645.293 500.957L642.926 510.791C641.575 516.403 633.425 516.403 632.074 510.791L629.707 500.957C617.04 448.338 578.154 405.526 526.291 387.1C521.903 385.541 521.903 379.459 526.291 377.9C578.154 359.474 617.04 316.662 629.707 264.043L632.074 254.209Z" fill="url(#paint2_linear_914_17)" shape-rendering="crispEdges"/>
</g>
<g filter="url(#filter1_d_914_17)">
<path d="M580.814 550.389C597.062 559.762 597.062 583.238 580.814 592.611L334.486 734.71C318.262 744.069 298 732.346 298 713.599L298 429.401C298 410.654 318.262 398.931 334.486 408.29L580.814 550.389Z" fill="url(#paint3_linear_914_17)" shape-rendering="crispEdges"/>
</g>
</g>
<defs>
<filter id="filter0_d_914_17" x="459" y="238" width="357" height="393" filterUnits="userSpaceOnUse" color-interpolation-filters="sRGB">
<feFlood flood-opacity="0" result="BackgroundImageFix"/>
<feColorMatrix in="SourceAlpha" type="matrix" values="0 0 0 0 0 0 0 0 0 0 0 0 0 0 0 0 0 0 127 0" result="hardAlpha"/>
<feOffset dy="52"/>
<feGaussianBlur stdDeviation="32"/>
<feComposite in2="hardAlpha" operator="out"/>
<feColorMatrix type="matrix" values="0 0 0 0 0.920833 0 0 0 0 0.337639 0 0 0 0 0.498625 0 0 0 1 0"/>
<feBlend mode="normal" in2="BackgroundImageFix" result="effect1_dropShadow_914_17"/>
<feBlend mode="normal" in="SourceGraphic" in2="effect1_dropShadow_914_17" result="shape"/>
</filter>
<filter id="filter1_d_914_17" x="234" y="393" width="423" height="461" filterUnits="userSpaceOnUse" color-interpolation-filters="sRGB">
<feFlood flood-opacity="0" result="BackgroundImageFix"/>
<feColorMatrix in="SourceAlpha" type="matrix" values="0 0 0 0 0 0 0 0 0 0 0 0 0 0 0 0 0 0 127 0" result="hardAlpha"/>
<feOffset dy="52"/>
<feGaussianBlur stdDeviation="32"/>
<feComposite in2="hardAlpha" operator="out"/>
<feColorMatrix type="matrix" values="0 0 0 0 0.920833 0 0 0 0 0.337639 0 0 0 0 0.498625 0 0 0 1 0"/>
<feBlend mode="normal" in2="BackgroundImageFix" result="effect1_dropShadow_914_17"/>
<feBlend mode="normal" in="SourceGraphic" in2="effect1_dropShadow_914_17" result="shape"/>
</filter>
<radialGradient id="paint0_radial_914_17" cx="0" cy="0" r="1" gradientUnits="userSpaceOnUse" gradientTransform="translate(512 512) rotate(90) scale(412)">
<stop stop-color="#FF80A3"/>
<stop offset="1" stop-color="#FF4D7E"/>
</radialGradient>
<linearGradient id="paint1_linear_914_17" x1="512" y1="100" x2="512" y2="924" gradientUnits="userSpaceOnUse">
<stop stop-color="white" stop-opacity="0.95"/>
<stop offset="1" stop-color="white" stop-opacity="0.3"/>
</linearGradient>
<linearGradient id="paint2_linear_914_17" x1="637.5" y1="250" x2="637.5" y2="515" gradientUnits="userSpaceOnUse">
<stop stop-color="white"/>
<stop offset="1" stop-color="white" stop-opacity="0.5"/>
</linearGradient>
<linearGradient id="paint3_linear_914_17" x1="457.705" y1="405" x2="457.705" y2="738" gradientUnits="userSpaceOnUse">
<stop stop-color="white"/>
<stop offset="1" stop-color="white" stop-opacity="0.5"/>
</linearGradient>
<clipPath id="clip0_914_17">
<rect width="824" height="824" fill="white" transform="translate(100 100)"/>
</clipPath>
<clipPath id="clip1_914_17">
<rect width="824" height="824" fill="white" transform="translate(100 100)"/>
</clipPath>
</defs>
</svg>
