<svg width="16" height="17" viewBox="0 0 16 17" fill="none" xmlns="http://www.w3.org/2000/svg">
<mask id="mask0_919_171" style="mask-type:alpha" maskUnits="userSpaceOnUse" x="0" y="0" width="16" height="17">
<rect y="0.5" width="16" height="16" fill="#D9D9D9"/>
</mask>
<g mask="url(#mask0_919_171)">
<path d="M10.4167 11.15C10.3167 11.0389 10.2667 10.9167 10.2667 10.7833C10.2667 10.65 10.3167 10.5333 10.4167 10.4333L11.6833 9.16668H6.58333C6.43889 9.16668 6.31956 9.11934 6.22533 9.02468C6.13067 8.93045 6.08333 8.81112 6.08333 8.66668C6.08333 8.52223 6.13067 8.40268 6.22533 8.30801C6.31956 8.21379 6.43889 8.16668 6.58333 8.16668H11.6833L10.4167 6.88334C10.3167 6.78334 10.2667 6.66668 10.2667 6.53334C10.2667 6.40001 10.3167 6.28334 10.4167 6.18334C10.5167 6.08334 10.6333 6.03334 10.7667 6.03334C10.9 6.03334 11.0111 6.07779 11.1 6.16668L13.1833 8.25001C13.2389 8.30557 13.2807 8.36934 13.3087 8.44134C13.3362 8.51379 13.35 8.5889 13.35 8.66668C13.35 8.74445 13.3362 8.81934 13.3087 8.89134C13.2807 8.96379 13.2389 9.02779 13.1833 9.08334L11.1 11.1667C11 11.2778 10.8862 11.3278 10.7587 11.3167C10.6307 11.3056 10.5167 11.25 10.4167 11.15ZM3.6 14.5C3.26667 14.5 2.98333 14.3833 2.75 14.15C2.51667 13.9167 2.4 13.6333 2.4 13.3V4.03334C2.4 3.70001 2.51667 3.41668 2.75 3.18334C2.98333 2.95001 3.26667 2.83334 3.6 2.83334H7.58333C7.71667 2.83334 7.83333 2.88045 7.93333 2.97468C8.03333 3.06934 8.08333 3.1889 8.08333 3.33334C8.08333 3.47779 8.03333 3.59712 7.93333 3.69134C7.83333 3.78601 7.71667 3.83334 7.58333 3.83334H3.6C3.55556 3.83334 3.51111 3.85557 3.46667 3.90001C3.42222 3.94445 3.4 3.9889 3.4 4.03334V13.3C3.4 13.3445 3.42222 13.3889 3.46667 13.4333C3.51111 13.4778 3.55556 13.5 3.6 13.5H7.58333C7.71667 13.5 7.83333 13.5471 7.93333 13.6413C8.03333 13.736 8.08333 13.8556 8.08333 14C8.08333 14.1445 8.03333 14.264 7.93333 14.3587C7.83333 14.4529 7.71667 14.5 7.58333 14.5H3.6Z" fill="#B2B2C2"/>
</g>
</svg>
