<svg width="16" height="17" viewBox="0 0 16 17" fill="none" xmlns="http://www.w3.org/2000/svg">
<path d="M3.49805 8.5C3.42969 8.5 3.36458 8.48698 3.30273 8.46094C3.24414 8.4349 3.19206 8.39909 3.14648 8.35352C3.10091 8.30794 3.0651 8.25586 3.03906 8.19727C3.01302 8.13542 3 8.07031 3 8.00195C3 7.93359 3.01302 7.87012 3.03906 7.81152C3.0651 7.74967 3.10091 7.69596 3.14648 7.65039C3.19206 7.60156 3.24414 7.56413 3.30273 7.53809C3.36458 7.51204 3.42969 7.49902 3.49805 7.49902H12.502C12.5703 7.49902 12.6338 7.51204 12.6924 7.53809C12.7542 7.56413 12.8079 7.60156 12.8535 7.65039C12.8991 7.69596 12.9349 7.74967 12.9609 7.81152C12.987 7.87012 13 7.93359 13 8.00195C13 8.07031 12.987 8.13542 12.9609 8.19727C12.9349 8.25586 12.8991 8.30794 12.8535 8.35352C12.8079 8.39909 12.7542 8.4349 12.6924 8.46094C12.6338 8.48698 12.5703 8.5 12.502 8.5H3.49805Z" fill="#B2B2C2"/>
</svg>
