<svg width="20" height="20" viewBox="0 0 20 20" fill="none" xmlns="http://www.w3.org/2000/svg">
<mask id="mask0_1114_423" style="mask-type:alpha" maskUnits="userSpaceOnUse" x="0" y="0" width="20" height="20">
<rect width="20" height="20" fill="#D9D9D9"/>
</mask>
<g mask="url(#mask0_1114_423)">
<path d="M7.38168 16.25H5.25645C4.84219 16.25 4.48756 16.1025 4.19256 15.8075C3.89754 15.5125 3.75004 15.1578 3.75004 14.7436V12.6183L2.20197 11.0545C1.91458 10.7654 1.77089 10.4135 1.77089 9.99875C1.77089 9.58399 1.91458 9.23291 2.20197 8.94552L3.75004 7.38167V5.25644C3.75004 4.84217 3.89754 4.48754 4.19256 4.19254C4.48756 3.89753 4.84219 3.75002 5.25645 3.75002H7.38168L8.94554 2.20196C9.2346 1.91457 9.58651 1.77087 10.0013 1.77087C10.416 1.77087 10.7671 1.91457 11.0545 2.20196L12.6183 3.75002H14.7436C15.1578 3.75002 15.5125 3.89753 15.8075 4.19254C16.1025 4.48754 16.25 4.84217 16.25 5.25644V7.38167L17.7981 8.94552C18.0854 9.23459 18.2291 9.5865 18.2291 10.0012C18.2291 10.416 18.0854 10.7671 17.7981 11.0545L16.25 12.6183V14.7436C16.25 15.1578 16.1025 15.5125 15.8075 15.8075C15.5125 16.1025 15.1578 16.25 14.7436 16.25H12.6183L11.0545 17.798C10.7654 18.0854 10.4135 18.2291 9.99876 18.2291C9.584 18.2291 9.23292 18.0854 8.94554 17.798L7.38168 16.25ZM10 13.8461C8.93592 13.8461 8.02887 13.4711 7.27887 12.7211C6.52888 11.9711 6.15389 11.0641 6.15389 10C6.15389 8.9359 6.52888 8.02885 7.27887 7.27885C8.02887 6.52887 8.93592 6.15387 10 6.15387C11.0641 6.15387 11.9712 6.52887 12.7212 7.27885C13.4711 8.02885 13.8461 8.9359 13.8461 10C13.8461 11.0641 13.4711 11.9711 12.7212 12.7211C11.9712 13.4711 11.0641 13.8461 10 13.8461ZM10 12.5962C10.7158 12.5962 11.3275 12.3424 11.835 11.8349C12.3424 11.3275 12.5962 10.7158 12.5962 10C12.5962 9.28418 12.3424 8.67253 11.835 8.16506C11.3275 7.65757 10.7158 7.40383 10 7.40383C9.28419 7.40383 8.67255 7.65757 8.16508 8.16506C7.65759 8.67253 7.40385 9.28418 7.40385 10C7.40385 10.7158 7.65759 11.3275 8.16508 11.8349C8.67255 12.3424 9.28419 12.5962 10 12.5962ZM10 17.0833L12.0833 15H15V12.0833L17.0833 10L15 7.91667V5H12.0833L10 2.91667L7.91668 5H5.00001V7.91667L2.91668 10L5.00001 12.0833V15H7.91668L10 17.0833Z" fill="white"/>
</g>
</svg>
