<svg width="24" height="24" viewBox="0 0 24 24" fill="none" xmlns="http://www.w3.org/2000/svg">
<mask id="mask0_923_58" style="mask-type:alpha" maskUnits="userSpaceOnUse" x="0" y="0" width="24" height="24">
<rect width="24" height="24" fill="#D9D9D9"/>
</mask>
<g mask="url(#mask0_923_58)">
<path d="M12.05 19.75C9.88722 19.75 8.04652 18.9974 6.52793 17.4923C5.00935 15.9872 4.25006 14.1564 4.25006 12V11.2192L2.92693 12.5423C2.78848 12.6808 2.61445 12.7516 2.40483 12.7548C2.19523 12.758 2.018 12.6872 1.87313 12.5423C1.72823 12.3974 1.65578 12.2218 1.65578 12.0154C1.65578 11.809 1.72823 11.6333 1.87311 11.4885L4.36733 8.99426C4.5481 8.81349 4.75899 8.72311 5.00001 8.72311C5.24103 8.72311 5.45192 8.81349 5.63268 8.99426L8.12691 11.4885C8.26538 11.6269 8.33621 11.801 8.33941 12.0106C8.34263 12.2202 8.27179 12.3974 8.12691 12.5423C7.98204 12.6872 7.80641 12.7596 7.60001 12.7596C7.39361 12.7596 7.21798 12.6872 7.07311 12.5423L5.74998 11.2192V12C5.74998 13.7372 6.36153 15.2132 7.58461 16.4279C8.80771 17.6427 10.2962 18.25 12.05 18.25C12.3424 18.25 12.6337 18.2302 12.9241 18.1904C13.2145 18.1507 13.5007 18.0827 13.7827 17.9866C13.9955 17.9225 14.1965 17.9292 14.3856 18.0068C14.5747 18.0843 14.7167 18.216 14.8116 18.4019C14.9064 18.5981 14.9125 18.7933 14.8298 18.9875C14.7471 19.1817 14.5994 19.3109 14.3866 19.375C14.0096 19.5083 13.6244 19.6041 13.2308 19.6625C12.8372 19.7208 12.4436 19.75 12.05 19.75ZM11.95 5.74998C11.6577 5.74998 11.3664 5.76986 11.076 5.80961C10.7856 5.84936 10.4994 5.91731 10.2173 6.01346C10.0045 6.07756 9.80099 6.07082 9.60676 5.99326C9.41254 5.91569 9.268 5.78396 9.17313 5.59808C9.07825 5.41218 9.07056 5.22212 9.15006 5.02791C9.22954 4.83367 9.37056 4.70451 9.57311 4.64041C9.96029 4.50707 10.3523 4.40867 10.7491 4.34521C11.1459 4.28176 11.5462 4.25003 11.95 4.25003C14.1128 4.25003 15.9535 5.00259 17.4721 6.50771C18.9907 8.01284 19.75 9.84361 19.75 12V12.7808L21.0731 11.4577C21.2116 11.3193 21.3856 11.2484 21.5952 11.2452C21.8048 11.242 21.9821 11.3128 22.1269 11.4577C22.2718 11.6026 22.3443 11.7782 22.3443 11.9846C22.3443 12.191 22.2718 12.3667 22.1269 12.5115L19.6327 15.0058C19.4519 15.1865 19.2411 15.2769 19 15.2769C18.759 15.2769 18.5481 15.1865 18.3674 15.0058L15.8731 12.5115C15.7347 12.3731 15.6638 12.199 15.6606 11.9894C15.6574 11.7798 15.7283 11.6026 15.8731 11.4577C16.018 11.3128 16.1936 11.2404 16.4 11.2404C16.6064 11.2404 16.7821 11.3128 16.9269 11.4577L18.2501 12.7808V12C18.2501 10.2628 17.6385 8.78686 16.4154 7.57211C15.1924 6.35736 13.7039 5.74998 11.95 5.74998Z" fill="#8A8A99"/>
</g>
</svg>
