<svg width="16" height="16" viewBox="0 0 16 16" fill="none" xmlns="http://www.w3.org/2000/svg">
<mask id="mask0_26_165" style="mask-type:alpha" maskUnits="userSpaceOnUse" x="0" y="0" width="16" height="16">
<rect width="16" height="16" fill="#D9D9D9"/>
</mask>
<g mask="url(#mask0_26_165)">
<path d="M8.03331 13.1666C6.58886 13.1666 5.36109 12.664 4.34998 11.6586C3.33886 10.6529 2.83331 9.43331 2.83331 7.99998V7.48331L1.94998 8.36665C1.84998 8.45554 1.73331 8.49998 1.59998 8.49998C1.46664 8.49998 1.34998 8.45554 1.24998 8.36665C1.14998 8.26665 1.09998 8.14709 1.09998 8.00798C1.09998 7.86931 1.14998 7.75554 1.24998 7.66665L2.91664 5.99998C2.9722 5.93331 3.03598 5.88887 3.10798 5.86665C3.18042 5.84442 3.25553 5.83331 3.33331 5.83331C3.41109 5.83331 3.4862 5.84442 3.55864 5.86665C3.63064 5.88887 3.69442 5.93331 3.74998 5.99998L5.41664 7.66665C5.51664 7.75554 5.56664 7.86931 5.56664 8.00798C5.56664 8.14709 5.51664 8.26665 5.41664 8.36665C5.31664 8.45554 5.19998 8.49998 5.06664 8.49998C4.93331 8.49998 4.81664 8.45554 4.71664 8.36665L3.83331 7.48331V7.99998C3.83331 9.15554 4.24175 10.1389 5.05864 10.95C5.87509 11.7611 6.86664 12.1666 8.03331 12.1666C8.25553 12.1666 8.48042 12.1473 8.70798 12.1086C8.93598 12.0695 9.16109 12.0111 9.38331 11.9333C9.46109 11.8889 9.54998 11.8778 9.64998 11.9C9.74998 11.9222 9.82775 11.9666 9.88331 12.0333C10.0389 12.1778 10.1 12.336 10.0666 12.508C10.0333 12.6804 9.9222 12.8 9.73331 12.8666C9.45553 12.9555 9.17509 13.0278 8.89198 13.0833C8.60842 13.1389 8.3222 13.1666 8.03331 13.1666ZM12.6666 10.1666C12.5889 10.1666 12.514 10.1555 12.442 10.1333C12.3695 10.1111 12.3055 10.0666 12.25 9.99998L10.5833 8.33331C10.4833 8.24442 10.4333 8.13042 10.4333 7.99131C10.4333 7.85265 10.4833 7.73331 10.5833 7.63331C10.6833 7.54442 10.8 7.49998 10.9333 7.49998C11.0666 7.49998 11.1833 7.54442 11.2833 7.63331L12.1666 8.51665V7.99998C12.1666 6.84442 11.7584 5.86109 10.942 5.04998C10.1251 4.23887 9.13331 3.83331 7.96664 3.83331C7.74442 3.83331 7.51953 3.85287 7.29198 3.89198C7.06398 3.93065 6.83886 3.98887 6.61664 4.06665C6.53887 4.11109 6.44998 4.1222 6.34998 4.09998C6.24998 4.07776 6.1722 4.03331 6.11664 3.96665C5.96109 3.8222 5.89998 3.66376 5.93331 3.49131C5.96664 3.31931 6.07775 3.19998 6.26664 3.13331C6.54442 3.04442 6.82509 2.9722 7.10864 2.91665C7.39175 2.86109 7.67775 2.83331 7.96664 2.83331C9.41109 2.83331 10.6389 3.33598 11.65 4.34131C12.6611 5.34709 13.1666 6.56665 13.1666 7.99998V8.51665L14.05 7.63331C14.15 7.54442 14.2666 7.49998 14.4 7.49998C14.5333 7.49998 14.65 7.54442 14.75 7.63331C14.85 7.73331 14.9 7.85265 14.9 7.99131C14.9 8.13042 14.85 8.24442 14.75 8.33331L13.0833 9.99998C13.0278 10.0666 12.9638 10.1111 12.8913 10.1333C12.8193 10.1555 12.7444 10.1666 12.6666 10.1666Z" fill="white"/>
</g>
</svg>
