<svg width="24" height="24" viewBox="0 0 24 24" fill="none" xmlns="http://www.w3.org/2000/svg">
<mask id="mask0_923_26" style="mask-type:alpha" maskUnits="userSpaceOnUse" x="0" y="0" width="24" height="24">
<rect width="24" height="24" fill="#D9D9D9"/>
</mask>
<g mask="url(#mask0_923_26)">
<path d="M13.5096 21.5H10.4808C10.2565 21.5 10.0622 21.4247 9.89812 21.274C9.73402 21.1234 9.6353 20.9359 9.60197 20.7115L9.31159 18.4539C9.04364 18.3641 8.76896 18.2385 8.48754 18.0769C8.20613 17.9154 7.95452 17.7423 7.73272 17.5577L5.64427 18.4385C5.43017 18.5218 5.21767 18.5301 5.00677 18.4635C4.79587 18.3968 4.63016 18.2647 4.50964 18.0673L3.00584 15.4481C2.88533 15.2507 2.84847 15.0398 2.89527 14.8154C2.94205 14.5911 3.05583 14.4103 3.23659 14.2731L5.04429 12.9058C5.02121 12.7571 5.00486 12.6077 4.99524 12.4577C4.98563 12.3077 4.98082 12.1584 4.98082 12.0097C4.98082 11.8673 4.98563 11.7228 4.99524 11.576C5.00486 11.4292 5.02121 11.2686 5.04429 11.0943L3.23659 9.72694C3.05583 9.58977 2.94205 9.409 2.89527 9.18464C2.84847 8.96029 2.88533 8.7494 3.00584 8.55196L4.50964 5.95201C4.61991 5.74431 4.78145 5.60969 4.99427 5.54816C5.20709 5.48663 5.42054 5.49753 5.63464 5.58086L7.72309 6.45201C7.96413 6.26098 8.2215 6.0863 8.49522 5.92796C8.76895 5.76961 9.03787 5.64236 9.30197 5.54621L9.60197 3.28854C9.6353 3.06417 9.73402 2.87667 9.89812 2.72604C10.0622 2.57539 10.2565 2.50006 10.4808 2.50006H13.5096C13.734 2.50006 13.9298 2.57539 14.0971 2.72604C14.2644 2.87667 14.3647 3.06417 14.3981 3.28854L14.6884 5.55584C14.9884 5.6648 15.2599 5.79204 15.5029 5.93756C15.7458 6.08308 15.991 6.25456 16.2385 6.45201L18.3654 5.58086C18.5795 5.49753 18.7904 5.48759 18.9981 5.55104C19.2058 5.6145 19.3699 5.74495 19.4904 5.94239L20.9942 8.55196C21.1147 8.7494 21.1516 8.96029 21.1048 9.18464C21.058 9.409 20.9442 9.58977 20.7634 9.72694L18.9173 11.1231C18.9532 11.2846 18.9727 11.4356 18.9759 11.576C18.9791 11.7164 18.9807 11.8577 18.9807 12C18.9807 12.1359 18.9775 12.2741 18.9711 12.4145C18.9647 12.5548 18.9416 12.7154 18.9019 12.8962L20.7288 14.2731C20.916 14.4039 21.0314 14.5831 21.075 14.8106C21.1186 15.0382 21.0801 15.2507 20.9596 15.4481L19.4558 18.0519C19.3353 18.2493 19.167 18.3824 18.951 18.451C18.7349 18.5195 18.5199 18.5122 18.3058 18.4288L16.2385 17.5481C15.991 17.7455 15.7385 17.9202 15.4808 18.0721C15.2231 18.224 14.959 18.3481 14.6884 18.4442L14.3981 20.7115C14.3647 20.9359 14.2644 21.1234 14.0971 21.274C13.9298 21.4247 13.734 21.5 13.5096 21.5ZM12.0115 15C12.8436 15 13.5516 14.708 14.1356 14.1241C14.7195 13.5401 15.0115 12.8321 15.0115 12C15.0115 11.168 14.7195 10.46 14.1356 9.87601C13.5516 9.29205 12.8436 9.00006 12.0115 9.00006C11.1693 9.00006 10.4587 9.29205 9.87984 9.87601C9.30101 10.46 9.01159 11.168 9.01159 12C9.01159 12.8321 9.30101 13.5401 9.87984 14.1241C10.4587 14.708 11.1693 15 12.0115 15ZM12.0115 13.5C11.5949 13.5 11.2407 13.3542 10.949 13.0625C10.6574 12.7709 10.5115 12.4167 10.5115 12C10.5115 11.5834 10.6574 11.2292 10.949 10.9375C11.2407 10.6459 11.5949 10.5 12.0115 10.5C12.4282 10.5 12.7824 10.6459 13.074 10.9375C13.3657 11.2292 13.5115 11.5834 13.5115 12C13.5115 12.4167 13.3657 12.7709 13.074 13.0625C12.7824 13.3542 12.4282 13.5 12.0115 13.5ZM11 20H12.9654L13.325 17.3212C13.8353 17.1879 14.3016 16.9984 14.724 16.7529C15.1465 16.5074 15.5539 16.1917 15.9462 15.8058L18.4308 16.85L19.4154 15.15L17.2462 13.5154C17.3295 13.2564 17.3862 13.0026 17.4164 12.7539C17.4465 12.5052 17.4615 12.2539 17.4615 12C17.4615 11.7398 17.4465 11.4885 17.4164 11.2462C17.3862 11.0039 17.3295 10.7565 17.2462 10.5039L19.4346 8.85004L18.45 7.15004L15.9365 8.20966C15.6019 7.85196 15.201 7.53594 14.7337 7.26159C14.2664 6.98722 13.7936 6.79299 13.3154 6.67889L13 4.00004H11.0154L10.6846 6.66926C10.1744 6.78978 9.70322 6.97439 9.27117 7.22311C8.83912 7.47183 8.42694 7.79235 8.03464 8.18466L5.55002 7.15004L4.56539 8.85004L6.72502 10.4597C6.64169 10.6968 6.58335 10.9436 6.55002 11.2C6.51669 11.4565 6.50002 11.7263 6.50002 12.0097C6.50002 12.2699 6.51669 12.525 6.55002 12.775C6.58335 13.025 6.63848 13.2718 6.71539 13.5154L4.56539 15.15L5.55002 16.85L8.02502 15.8C8.4045 16.1898 8.81027 16.509 9.24232 16.7577C9.67437 17.0065 10.1519 17.1975 10.675 17.3308L11 20Z" fill="#8A8A99"/>
</g>
</svg>
