<svg xmlns="http://www.w3.org/2000/svg" width="16" height="17" viewBox="0 0 16 17" fill="none">
  <mask id="mask0_184_1177" style="mask-type:alpha" maskUnits="userSpaceOnUse" x="0" y="0" width="16" height="17">
    <rect y="0.5" width="16" height="16" fill="#D9D9D9"/>
  </mask>
  <g mask="url(#mask0_184_1177)">
    <path d="M3.53325 14.1667C3.19992 14.1667 2.91659 14.05 2.68325 13.8167C2.44992 13.5833 2.33325 13.3 2.33325 12.9667V4.03333C2.33325 3.69999 2.44992 3.41666 2.68325 3.18333C2.91659 2.94999 3.19992 2.83333 3.53325 2.83333H7.24992C7.38325 2.83333 7.49992 2.88044 7.59992 2.97466C7.69992 3.06933 7.74992 3.18888 7.74992 3.33333C7.74992 3.47777 7.69992 3.59711 7.59992 3.69133C7.49992 3.786 7.38325 3.83333 7.24992 3.83333H3.53325C3.48881 3.83333 3.44436 3.85555 3.39992 3.89999C3.35547 3.94444 3.33325 3.98888 3.33325 4.03333V12.9667C3.33325 13.0111 3.35547 13.0555 3.39992 13.1C3.44436 13.1444 3.48881 13.1667 3.53325 13.1667H12.4666C12.511 13.1667 12.5555 13.1444 12.5999 13.1C12.6444 13.0555 12.6666 13.0111 12.6666 12.9667V9.24999C12.6666 9.11666 12.7137 8.99999 12.8079 8.89999C12.9026 8.79999 13.0221 8.74999 13.1666 8.74999C13.311 8.74999 13.4306 8.79999 13.5253 8.89999C13.6195 8.99999 13.6666 9.11666 13.6666 9.24999V12.9667C13.6666 13.3 13.5499 13.5833 13.3166 13.8167C13.0833 14.05 12.7999 14.1667 12.4666 14.1667H3.53325ZM6.13325 10.3667C6.03325 10.2778 5.98325 10.1638 5.98325 10.0247C5.98325 9.88599 6.03325 9.76666 6.13325 9.66666L11.9666 3.83333H9.83325C9.68881 3.83333 9.56947 3.786 9.47525 3.69133C9.38059 3.59711 9.33325 3.47777 9.33325 3.33333C9.33325 3.18888 9.38059 3.06933 9.47525 2.97466C9.56947 2.88044 9.68881 2.83333 9.83325 2.83333H13.0666C13.2333 2.83333 13.375 2.89155 13.4919 3.00799C13.6084 3.12488 13.6666 3.26666 13.6666 3.43333V6.66666C13.6666 6.81111 13.6195 6.93044 13.5253 7.02466C13.4306 7.11933 13.311 7.16666 13.1666 7.16666C13.0221 7.16666 12.9026 7.11933 12.8079 7.02466C12.7137 6.93044 12.6666 6.81111 12.6666 6.66666V4.53333L6.81659 10.3833C6.7277 10.4833 6.61659 10.5333 6.48325 10.5333C6.34992 10.5333 6.23325 10.4778 6.13325 10.3667Z" fill="#ffffff"/>
  </g>
</svg>