<svg width="20" height="20" viewBox="0 0 20 20" fill="none" xmlns="http://www.w3.org/2000/svg">
<mask id="mask0_1114_399" style="mask-type:alpha" maskUnits="userSpaceOnUse" x="0" y="0" width="20" height="20">
<rect width="20" height="20" fill="#D9D9D9"/>
</mask>
<g mask="url(#mask0_1114_399)">
<path d="M15.7051 9.97919C15.7051 8.8334 15.3981 7.78769 14.7841 6.84206C14.1701 5.89644 13.3468 5.18895 12.3141 4.71958C12.1538 4.64372 12.0358 4.53047 11.9599 4.37983C11.8841 4.2292 11.8748 4.07556 11.9321 3.91894C12.0009 3.75185 12.1202 3.63573 12.2901 3.57056C12.4599 3.5054 12.6319 3.51074 12.8061 3.58659C14.0625 4.1571 15.0681 5.01543 15.8229 6.16158C16.5777 7.30775 16.9551 8.58018 16.9551 9.97888C16.9551 11.3776 16.5777 12.6501 15.8229 13.7965C15.0681 14.9428 14.0625 15.8013 12.8061 16.3718C12.6319 16.4476 12.4599 16.453 12.2901 16.3878C12.1202 16.3226 12.0009 16.2065 11.9321 16.0394C11.8748 15.8828 11.8841 15.7292 11.9599 15.5785C12.0358 15.4279 12.1538 15.3147 12.3141 15.2388C13.3468 14.7694 14.1701 14.0619 14.7841 13.1163C15.3981 12.1707 15.7051 11.125 15.7051 9.97919ZM6.13784 12.0833H3.79811C3.58471 12.0833 3.40582 12.0111 3.26146 11.8668C3.1171 11.7224 3.04492 11.5435 3.04492 11.3301V8.66992C3.04492 8.45652 3.1171 8.27763 3.26146 8.13327C3.40582 7.9889 3.58471 7.91671 3.79811 7.91671H6.13784L8.63142 5.42315C8.8312 5.22337 9.06116 5.17828 9.3213 5.28788C9.58145 5.39749 9.71153 5.59322 9.71153 5.87506V14.125C9.71153 14.4068 9.58145 14.6026 9.3213 14.7122C9.06116 14.8218 8.8312 14.7767 8.63142 14.5769L6.13784 12.0833ZM13.4615 10.0009C13.4615 10.5208 13.3536 11.0127 13.1378 11.4769C12.922 11.941 12.6311 12.3312 12.2652 12.6474C12.1472 12.7265 12.0232 12.7345 11.8934 12.6715C11.7636 12.6084 11.6987 12.5043 11.6987 12.359V7.5994C11.6987 7.45411 11.7636 7.34994 11.8934 7.2869C12.0232 7.22387 12.1472 7.23144 12.2652 7.30961C12.6311 7.63529 12.922 8.0353 13.1378 8.50965C13.3536 8.98401 13.4615 9.48111 13.4615 10.0009ZM8.46155 7.37502L6.66988 9.16669H4.29488V10.8334H6.66988L8.46155 12.625V7.37502Z" fill="white"/>
</g>
</svg>
