<svg width="24" height="24" viewBox="0 0 24 24" fill="none" xmlns="http://www.w3.org/2000/svg">
<mask id="mask0_184_52" style="mask-type:alpha" maskUnits="userSpaceOnUse" x="0" y="0" width="24" height="24">
<rect width="24" height="24" fill="#D9D9D9"/>
</mask>
<g mask="url(#mask0_184_52)">
<path d="M18.95 21.6L16.45 19.125C16.25 19.2417 16.046 19.354 15.838 19.462C15.6293 19.5707 15.4167 19.675 15.2 19.775C14.95 19.875 14.7167 19.8417 14.5 19.675C14.2833 19.5083 14.175 19.2833 14.175 19C14.175 18.8667 14.2167 18.75 14.3 18.65C14.3833 18.55 14.4833 18.4667 14.6 18.4C14.7333 18.35 14.8667 18.2957 15 18.237C15.1333 18.179 15.2583 18.1167 15.375 18.05L11.8 14.45V16.6C11.8 17 11.6127 17.2793 11.238 17.438C10.8627 17.596 10.5333 17.5333 10.25 17.25L7.50001 14.5H4.70001C4.43334 14.5 4.21668 14.4127 4.05001 14.238C3.88334 14.0627 3.80001 13.85 3.80001 13.6V10.4C3.80001 10.15 3.88334 9.93732 4.05001 9.76199C4.21668 9.58732 4.43334 9.49999 4.70001 9.49999H6.82501L2.52501 5.19999C2.39168 5.04999 2.32068 4.87065 2.31201 4.66199C2.30401 4.45399 2.37501 4.27499 2.52501 4.12499C2.67501 3.99165 2.85001 3.92499 3.05001 3.92499C3.25001 3.92499 3.42501 3.99165 3.57501 4.12499L20 20.55C20.1333 20.7 20.2043 20.879 20.213 21.087C20.221 21.2957 20.15 21.4667 20 21.6C19.85 21.75 19.675 21.825 19.475 21.825C19.275 21.825 19.1 21.75 18.95 21.6ZM15.2 4.17499C16.7833 4.84165 18.0583 5.87499 19.025 7.27499C19.9917 8.67499 20.475 10.2417 20.475 11.975C20.475 12.8583 20.346 13.7 20.088 14.5C19.8293 15.3 19.4583 16.0417 18.975 16.725L17.9 15.65C18.25 15.1167 18.5167 14.5373 18.7 13.912C18.8833 13.2873 18.975 12.6417 18.975 11.975C18.975 10.5417 18.575 9.24565 17.775 8.08699C16.975 6.92899 15.9167 6.08332 14.6 5.54999C14.4667 5.48332 14.3627 5.39565 14.288 5.28699C14.2127 5.17899 14.175 5.05832 14.175 4.92499C14.175 4.64165 14.2833 4.42065 14.5 4.26199C14.7167 4.10399 14.95 4.07499 15.2 4.17499ZM15.925 13.675L14.175 11.925V8.29999C14.8417 8.66665 15.3627 9.18332 15.738 9.84999C16.1127 10.5167 16.3 11.2333 16.3 12C16.3 12.3 16.2667 12.5873 16.2 12.862C16.1333 13.1373 16.0417 13.4083 15.925 13.675ZM11.8 9.52499L9.62501 7.37499L10.25 6.74999C10.5333 6.46665 10.8627 6.40399 11.238 6.56199C11.6127 6.72065 11.8 6.99999 11.8 7.39999V9.52499ZM10.3 15.15V12.95L8.32501 11H5.30001V13H8.15001L10.3 15.15Z" fill="white"/>
</g>
</svg>
