<svg width="24" height="24" viewBox="0 0 24 24" fill="none" xmlns="http://www.w3.org/2000/svg">
<mask id="mask0_923_4" style="mask-type:alpha" maskUnits="userSpaceOnUse" x="0" y="0" width="24" height="24">
<rect width="24" height="24" fill="#D9D9D9"/>
</mask>
<g mask="url(#mask0_923_4)">
<path d="M4.29997 19.5C3.79997 19.5 3.37497 19.325 3.02497 18.975C2.67497 18.625 2.49997 18.2 2.49997 17.7V6.3C2.49997 5.8 2.67497 5.375 3.02497 5.025C3.37497 4.675 3.79997 4.5 4.29997 4.5H8.12497C8.32497 4.5 8.49997 4.571 8.64997 4.713C8.79997 4.85433 8.87497 5.03333 8.87497 5.25C8.87497 5.46667 8.79997 5.64567 8.64997 5.787C8.49997 5.929 8.32497 6 8.12497 6H4.29997C4.2333 6 4.16664 6.03333 4.09997 6.1C4.0333 6.16667 3.99997 6.23333 3.99997 6.3V17.7C3.99997 17.7667 4.0333 17.8333 4.09997 17.9C4.16664 17.9667 4.2333 18 4.29997 18H19.7C19.7666 18 19.8333 17.9667 19.9 17.9C19.9666 17.8333 20 17.7667 20 17.7V6.3C20 6.23333 19.9666 6.16667 19.9 6.1C19.8333 6.03333 19.7666 6 19.7 6H15.875C15.675 6 15.5 5.929 15.35 5.787C15.2 5.64567 15.125 5.46667 15.125 5.25C15.125 5.03333 15.2 4.85433 15.35 4.713C15.5 4.571 15.675 4.5 15.875 4.5H19.7C20.2 4.5 20.625 4.675 20.975 5.025C21.325 5.375 21.5 5.8 21.5 6.3V17.7C21.5 18.2 21.325 18.625 20.975 18.975C20.625 19.325 20.2 19.5 19.7 19.5H4.29997ZM12 14.775C11.8833 14.775 11.771 14.7543 11.663 14.713C11.5543 14.671 11.4583 14.6083 11.375 14.525L7.84997 11C7.71664 10.8667 7.64997 10.7 7.64997 10.5C7.64997 10.3 7.72497 10.125 7.87497 9.975C8.02497 9.825 8.19997 9.75 8.39997 9.75C8.59997 9.75 8.77497 9.825 8.92497 9.975L11.25 12.3V5.25C11.25 5.03333 11.321 4.85433 11.463 4.713C11.6043 4.571 11.7833 4.5 12 4.5C12.2166 4.5 12.396 4.571 12.538 4.713C12.6793 4.85433 12.75 5.03333 12.75 5.25V12.3L15.1 9.95C15.2333 9.8 15.4 9.725 15.6 9.725C15.8 9.725 15.975 9.80833 16.125 9.975C16.275 10.1083 16.35 10.279 16.35 10.487C16.35 10.6957 16.275 10.875 16.125 11.025L12.625 14.525C12.5416 14.6083 12.446 14.671 12.338 14.713C12.2293 14.7543 12.1166 14.775 12 14.775Z" fill="#8A8A99"/>
</g>
</svg>
